# xmcd CD database file
#
# Track frame offsets:
#	150
#	19347
#	40689
#	56332
#	77637
#	97531
#	113245
#	135301
#	161865
#	177483
#	194991
#	213433
#	232053
#	246640
#	270411
#	293289
#	303656
#
# Disc length: 4287 seconds
#
# Revision: 0
# Processed by: cddbd v1.5.1PL0 Copyright (c) Steve Scherf et al.
# Submitted via: CDex 1.51
#
DISCID=ee10bd11
DTITLE=DIVERSE - Even Better Music You've Never Heard Before 1
DYEAR=1900
DGENRE=Country
TTITLE0=The Old Joe Clarkes - No Going Back
TTITLE1=Lonesome Brothers - Early In The Spring
TTITLE2=Marah - It's Only Money, Tyrone
TTITLE3=Kirk Rundstrom - Coming Home
TTITLE4=Caitlin Cary - Sorry
TTITLE5=Trophy Husbands - Dark And Bloody Ground
TTITLE6=Crowd Of One - Wondering
TTITLE7=Karate - Sever
TTITLE8=Johnny Society - Wood
TTITLE9=Sand Rubies - Grey Riders
TTITLE10=Crooked Country - Drunkard's Lament
TTITLE11=Circuit Riders - Midnight Traffic
TTITLE12=Convoy - Sugarcane
TTITLE13=Bad Livers - Lumpy Beanpole and Dirt
TTITLE14=Jennyanykind - Up Early In The Morning
TTITLE15=John Train - Take You Home Tonight
TTITLE16=Oh Susanna - River Blue
EXTD=
EXTT0=
EXTT1=
EXTT2=
EXTT3=
EXTT4=
EXTT5=
EXTT6=
EXTT7=
EXTT8=
EXTT9=
EXTT10=
EXTT11=
EXTT12=
EXTT13=
EXTT14=
EXTT15=
EXTT16=
PLAYORDER=
